<?xml version="1.0" standalone="no"?><!DOCTYPE svg PUBLIC "-//W3C//DTD SVG 1.1//EN" "http://www.w3.org/Graphics/SVG/1.1/DTD/svg11.dtd"><svg t="1568872355435" class="icon" viewBox="0 0 1024 1024" version="1.1" xmlns="http://www.w3.org/2000/svg" p-id="3119" width="200" height="200" xmlns:xlink="http://www.w3.org/1999/xlink"><defs><style type="text/css"></style></defs><path d="M305.548387 471.225806c46.967742 0 85.677419-38.709677 85.677419-85.677419s-38.709677-85.677419-85.677419-85.677419c-46.967742 0-85.677419 38.709677-85.677419 85.677419s38.709677 85.677419 85.677419 85.677419z m0-121.290322c20.129032 0 35.612903 16.516129 35.612903 35.612903s-16.516129 35.612903-35.612903 35.612903-35.612903-16.516129-35.612903-35.612903 16.516129-35.612903 35.612903-35.612903z" p-id="3120" fill="#e6e6e6"></path><path d="M872.774194 177.032258H151.741935c-20.645161 0-40.774194 8.258065-55.741935 22.709677-14.967742 14.451613-22.709677 34.580645-22.709677 55.741936V769.032258c0 20.645161 8.258065 40.774194 22.709677 55.741936 14.451613 14.967742 34.580645 22.709677 55.741935 22.709677h721.032259c20.645161 0 40.774194-8.258065 55.741935-22.709677 14.967742-14.967742 22.709677-34.580645 22.709677-55.741936V254.967742c0-42.322581-35.096774-77.935484-78.451612-77.935484z m28.387096 592.516129c0 15.483871-12.903226 28.387097-28.387096 28.387097H151.741935c-15.483871 0-28.387097-12.903226-28.387096-28.387097V254.967742c0-15.483871 12.903226-28.387097 28.387096-28.387097h721.032259c15.483871 0 28.387097 12.903226 28.387096 28.387097v514.580645z" p-id="3121" fill="#e6e6e6"></path><path d="M749.935484 430.967742c-9.806452-9.806452-25.806452-9.806452-35.612903 0L624 521.290323 505.806452 403.612903c-9.806452-9.806452-25.806452-9.806452-35.096775 0l-302.967742 301.935484c-9.806452 9.806452-9.806452 25.806452 0 35.612903 5.16129 5.16129 11.354839 7.225806 18.064517 7.225807 6.193548 0 12.903226-2.064516 18.064516-7.225807l284.387097-284.903225 164.129032 164.129032c9.806452 9.806452 25.806452 9.806452 35.096774 0 9.806452-9.806452 9.806452-25.806452 0-35.612903l-28.387097-28.387097 72.774194-72.774194 87.741935 87.741936c5.16129 5.16129 11.354839 7.225806 18.064516 7.225806 6.193548 0 12.903226-2.064516 18.064516-7.225806 9.806452-9.806452 9.806452-25.806452 0-35.612904l-105.806451-104.774193z" p-id="3122" fill="#e6e6e6"></path><path d="M479.483871 560m-26.83871 0a26.83871 26.83871 0 1 0 53.67742 0 26.83871 26.83871 0 1 0-53.67742 0Z" p-id="3123" fill="#e6e6e6"></path><path d="M345.290323 694.709677m-26.83871 0a26.83871 26.83871 0 1 0 53.677419 0 26.83871 26.83871 0 1 0-53.677419 0Z" p-id="3124" fill="#e6e6e6"></path><path d="M412.387097 627.612903m-26.83871 0a26.83871 26.83871 0 1 0 53.677419 0 26.83871 26.83871 0 1 0-53.677419 0Z" p-id="3125" fill="#e6e6e6"></path></svg>
